<svg width="896" height="391" viewBox="0 0 896 391" fill="none" xmlns="http://www.w3.org/2000/svg">
<path d="M297.944 265.716C297.944 287.181 280.545 304.58 259.08 304.58C237.619 304.58 220.221 287.181 220.221 265.716C220.221 244.256 237.62 226.857 259.08 226.857C280.544 226.857 297.944 244.258 297.944 265.716Z" fill="white"/>
<path d="M147.684 191.078L168.526 170.236C176.493 161.124 181.358 149.23 181.358 136.174C181.358 107.559 158.158 84.3614 129.543 84.3588C100.923 84.3614 77.7258 107.559 77.7258 136.174C77.7232 150.483 83.5246 163.438 92.9042 172.818L56.2605 209.456C37.5066 190.7 25.9091 164.793 25.9091 136.174C25.9091 78.9399 72.3044 32.5446 129.544 32.5446C186.778 32.5446 233.174 78.9399 233.174 136.174C233.174 155.362 227.939 173.317 218.852 188.729L237.65 207.527C251.183 187.063 259.084 162.547 259.084 136.174C259.084 64.631 201.086 6.63293 129.543 6.63293C57.9967 6.63293 0 64.631 0 136.174C0 207.72 57.998 265.716 129.543 265.716C155.911 265.716 180.426 257.816 200.889 244.286L147.684 191.078Z" fill="white"/>
<path d="M440.639 218.658C440.639 221.028 439.865 222.986 438.32 224.533C436.77 226.083 434.903 226.855 432.718 226.855H396.645C395.185 226.855 393.681 226.402 392.137 225.489C390.587 224.58 389.629 223.485 389.264 222.211L384.892 213.465C376.696 218.75 368.362 222.85 359.887 225.761C351.416 228.674 341.991 230.136 331.605 230.136C313.931 230.136 300.679 225.353 291.847 215.788C283.006 206.223 278.592 192.334 278.592 174.113V77.6514C278.592 75.4648 279.414 73.5993 281.052 72.0498C282.694 70.5041 284.605 69.7274 286.791 69.7274H333.519C335.705 69.7274 337.621 70.5041 339.258 72.0498C340.9 73.5993 341.718 75.4661 341.718 77.6514V162.09C341.718 174.113 345.176 180.127 352.102 180.127C353.559 180.127 355.424 179.9 357.705 179.442C359.981 178.989 362.575 178.213 365.49 177.119H365.218C367.586 176.028 369.815 175.07 371.913 174.251C374.007 173.43 375.964 172.567 377.79 171.656V77.6514C377.79 75.4648 378.607 73.5993 380.25 72.0498C381.887 70.5041 383.8 69.7274 385.986 69.7274H432.717C434.902 69.7274 436.769 70.5041 438.318 72.0498C439.864 73.5993 440.638 75.4661 440.638 77.6514L440.639 218.658Z" fill="white"/>
<mask id="path-4-outside-1_1_3" maskUnits="userSpaceOnUse" x="333.063" y="259.218" width="563" height="132" fill="black">
<rect fill="white" x="333.063" y="259.218" width="563" height="132"/>
<path d="M367.808 387.715H335.063L345.18 260.218H396.201L405.774 302.971L410.126 324.619L414.259 303.079L422.745 260.218H468.218L477.573 387.715H443.741L438.192 312.761L436.887 285.13L420.243 374.987H391.849L371.833 285.13L371.18 312.761L367.808 387.715Z"/>
<path d="M538.557 378.033L537.47 379.23C536.744 380.1 535.62 381.116 534.097 382.276C532.647 383.437 530.942 384.597 528.984 385.757C527.099 386.918 524.778 387.897 522.022 388.695C519.266 389.565 516.438 390 513.537 390C493.955 390 484.164 380.318 484.164 360.954C484.164 357.183 484.853 353.738 486.231 350.619C487.609 347.428 489.386 344.745 491.562 342.569C493.737 340.393 496.348 338.471 499.394 336.803C502.44 335.063 505.486 333.721 508.532 332.778C511.651 331.763 514.915 330.929 518.323 330.276C521.732 329.623 524.778 329.188 527.461 328.971C530.145 328.753 532.719 328.644 535.185 328.644V326.686C535.185 322.262 533.988 319.144 531.595 317.331C529.274 315.517 525.503 314.611 520.281 314.611C515.785 314.611 511.107 315.155 506.248 316.243C501.389 317.258 497.581 318.491 494.825 319.941L487.863 305.146C492.795 301.955 499.213 299.163 507.118 296.77C515.023 294.304 523.074 293.071 531.269 293.071C538.521 293.071 544.504 293.796 549.219 295.247C553.933 296.625 557.74 299.018 560.641 302.427C563.615 305.763 565.718 310.042 566.951 315.264C568.184 320.413 568.8 326.976 568.8 334.954V379.23L571.846 387.715H542.039L538.557 378.033ZM529.963 370.854C530.906 370.854 531.776 370.672 532.574 370.31C533.444 369.874 534.097 369.476 534.532 369.113C534.968 368.678 535.185 368.46 535.185 368.46V342.351C530.761 342.351 527.244 343.584 524.633 346.05C522.022 348.444 520.716 352.179 520.716 357.255C520.716 366.321 523.799 370.854 529.963 370.854Z"/>
<path d="M614.587 390C607.77 390 600.88 388.876 593.918 386.628C586.956 384.307 582.495 382.059 580.537 379.883L583.366 362.368C585.831 364.761 589.929 366.828 595.659 368.569C601.46 370.31 607.371 371.18 613.391 371.18C617.742 371.18 620.716 370.636 622.311 369.548C623.979 368.46 624.813 366.937 624.813 364.979C624.813 363.093 623.363 361.425 620.462 359.975C617.561 358.452 612.847 356.711 606.32 354.753C589.421 349.676 580.972 339.16 580.972 323.205C580.972 316.678 582.858 311.093 586.629 306.452C590.401 301.738 595.223 298.329 601.098 296.226C606.972 294.123 613.536 293.071 620.788 293.071C633.19 293.071 642.328 295.356 648.202 299.925C649.508 301.158 650.161 301.774 650.161 301.774L645.374 317.331C640.587 312.616 633.988 310.259 625.575 310.259C618.685 310.259 615.24 312.29 615.24 316.351C615.24 317.512 615.494 318.491 616.002 319.289C616.509 320.014 617.343 320.667 618.504 321.247C619.737 321.755 620.933 322.19 622.094 322.552C623.254 322.842 624.886 323.278 626.989 323.858C629.092 324.365 630.905 324.837 632.428 325.272C640.914 328.1 647.078 332.089 650.922 337.238C654.766 342.388 656.688 348.806 656.688 356.494C656.688 378.831 642.654 390 614.587 390Z"/>
<path d="M694.693 390C684.902 390 678.048 387.063 674.132 381.188C670.288 375.314 668.366 365.378 668.366 351.381V314.393H660.86V299.272L673.697 295.247L684.793 269.9H703.939V295.247H721.78V314.393H703.613V354.862C703.613 360.664 704.447 364.508 706.115 366.393C707.783 368.279 710.358 369.222 713.839 369.222C715.362 369.222 716.74 369.04 717.973 368.678C719.206 368.315 720.221 367.808 721.019 367.155V381.95C719.931 383.038 718.517 384.126 716.776 385.213C715.036 386.229 712.135 387.28 708.073 388.368C704.085 389.456 699.624 390 694.693 390Z"/>
<path d="M783.494 331.473C783.494 322.262 783.022 315.735 782.08 311.891C781.137 308.047 779.396 306.126 776.858 306.126C774.682 306.126 772.905 306.524 771.527 307.322C770.149 308.047 769.134 309.244 768.481 310.912C767.829 312.508 767.393 314.176 767.176 315.916C767.031 317.584 766.958 319.724 766.958 322.335V331.473H783.494ZM774.791 390C766.668 390 759.597 388.767 753.578 386.301C747.631 383.835 742.916 380.391 739.435 375.967C736.027 371.543 733.525 366.575 731.929 361.063C730.334 355.478 729.536 349.278 729.536 342.46C729.536 326.215 733.67 313.922 741.937 305.582C750.205 297.241 761.773 293.071 776.64 293.071C790.928 293.071 801.154 296.444 807.318 303.188C813.483 309.861 816.565 320.63 816.565 335.498V347.573H766.85V349.64C766.85 353.919 767.285 357.437 768.155 360.192C769.098 362.948 770.44 364.979 772.18 366.285C773.921 367.59 775.698 368.46 777.511 368.895C779.324 369.331 781.536 369.548 784.147 369.548C786.685 369.548 789.405 369.222 792.306 368.569C795.279 367.916 798.253 366.901 801.226 365.523C804.272 364.145 806.81 362.513 808.841 360.628L815.26 371.615C812.576 375.967 808.624 379.629 803.402 382.602C798.253 385.503 793.285 387.462 788.498 388.477C783.711 389.492 779.142 390 774.791 390Z"/>
<path d="M866.751 387.715H831.613V317.331L825.086 313.305V301.013L848.475 295.247H857.287L860.442 321.138C863.415 303.37 872.952 294.485 889.053 294.485C890.866 294.485 892.751 294.812 894.709 295.464L891.011 334.192C889.488 332.814 886.152 332.126 881.002 332.126C873.605 332.126 868.855 334.084 866.751 338V387.715Z"/>
</mask>
<path d="M367.808 387.715H335.063L345.18 260.218H396.201L405.774 302.971L410.126 324.619L414.259 303.079L422.745 260.218H468.218L477.573 387.715H443.741L438.192 312.761L436.887 285.13L420.243 374.987H391.849L371.833 285.13L371.18 312.761L367.808 387.715Z" fill="white"/>
<path d="M538.557 378.033L537.47 379.23C536.744 380.1 535.62 381.116 534.097 382.276C532.647 383.437 530.942 384.597 528.984 385.757C527.099 386.918 524.778 387.897 522.022 388.695C519.266 389.565 516.438 390 513.537 390C493.955 390 484.164 380.318 484.164 360.954C484.164 357.183 484.853 353.738 486.231 350.619C487.609 347.428 489.386 344.745 491.562 342.569C493.737 340.393 496.348 338.471 499.394 336.803C502.44 335.063 505.486 333.721 508.532 332.778C511.651 331.763 514.915 330.929 518.323 330.276C521.732 329.623 524.778 329.188 527.461 328.971C530.145 328.753 532.719 328.644 535.185 328.644V326.686C535.185 322.262 533.988 319.144 531.595 317.331C529.274 315.517 525.503 314.611 520.281 314.611C515.785 314.611 511.107 315.155 506.248 316.243C501.389 317.258 497.581 318.491 494.825 319.941L487.863 305.146C492.795 301.955 499.213 299.163 507.118 296.77C515.023 294.304 523.074 293.071 531.269 293.071C538.521 293.071 544.504 293.796 549.219 295.247C553.933 296.625 557.74 299.018 560.641 302.427C563.615 305.763 565.718 310.042 566.951 315.264C568.184 320.413 568.8 326.976 568.8 334.954V379.23L571.846 387.715H542.039L538.557 378.033ZM529.963 370.854C530.906 370.854 531.776 370.672 532.574 370.31C533.444 369.874 534.097 369.476 534.532 369.113C534.968 368.678 535.185 368.46 535.185 368.46V342.351C530.761 342.351 527.244 343.584 524.633 346.05C522.022 348.444 520.716 352.179 520.716 357.255C520.716 366.321 523.799 370.854 529.963 370.854Z" fill="white"/>
<path d="M614.587 390C607.77 390 600.88 388.876 593.918 386.628C586.956 384.307 582.495 382.059 580.537 379.883L583.366 362.368C585.831 364.761 589.929 366.828 595.659 368.569C601.46 370.31 607.371 371.18 613.391 371.18C617.742 371.18 620.716 370.636 622.311 369.548C623.979 368.46 624.813 366.937 624.813 364.979C624.813 363.093 623.363 361.425 620.462 359.975C617.561 358.452 612.847 356.711 606.32 354.753C589.421 349.676 580.972 339.16 580.972 323.205C580.972 316.678 582.858 311.093 586.629 306.452C590.401 301.738 595.223 298.329 601.098 296.226C606.972 294.123 613.536 293.071 620.788 293.071C633.19 293.071 642.328 295.356 648.202 299.925C649.508 301.158 650.161 301.774 650.161 301.774L645.374 317.331C640.587 312.616 633.988 310.259 625.575 310.259C618.685 310.259 615.24 312.29 615.24 316.351C615.24 317.512 615.494 318.491 616.002 319.289C616.509 320.014 617.343 320.667 618.504 321.247C619.737 321.755 620.933 322.19 622.094 322.552C623.254 322.842 624.886 323.278 626.989 323.858C629.092 324.365 630.905 324.837 632.428 325.272C640.914 328.1 647.078 332.089 650.922 337.238C654.766 342.388 656.688 348.806 656.688 356.494C656.688 378.831 642.654 390 614.587 390Z" fill="white"/>
<path d="M694.693 390C684.902 390 678.048 387.063 674.132 381.188C670.288 375.314 668.366 365.378 668.366 351.381V314.393H660.86V299.272L673.697 295.247L684.793 269.9H703.939V295.247H721.78V314.393H703.613V354.862C703.613 360.664 704.447 364.508 706.115 366.393C707.783 368.279 710.358 369.222 713.839 369.222C715.362 369.222 716.74 369.04 717.973 368.678C719.206 368.315 720.221 367.808 721.019 367.155V381.95C719.931 383.038 718.517 384.126 716.776 385.213C715.036 386.229 712.135 387.28 708.073 388.368C704.085 389.456 699.624 390 694.693 390Z" fill="white"/>
<path d="M783.494 331.473C783.494 322.262 783.022 315.735 782.08 311.891C781.137 308.047 779.396 306.126 776.858 306.126C774.682 306.126 772.905 306.524 771.527 307.322C770.149 308.047 769.134 309.244 768.481 310.912C767.829 312.508 767.393 314.176 767.176 315.916C767.031 317.584 766.958 319.724 766.958 322.335V331.473H783.494ZM774.791 390C766.668 390 759.597 388.767 753.578 386.301C747.631 383.835 742.916 380.391 739.435 375.967C736.027 371.543 733.525 366.575 731.929 361.063C730.334 355.478 729.536 349.278 729.536 342.46C729.536 326.215 733.67 313.922 741.937 305.582C750.205 297.241 761.773 293.071 776.64 293.071C790.928 293.071 801.154 296.444 807.318 303.188C813.483 309.861 816.565 320.63 816.565 335.498V347.573H766.85V349.64C766.85 353.919 767.285 357.437 768.155 360.192C769.098 362.948 770.44 364.979 772.18 366.285C773.921 367.59 775.698 368.46 777.511 368.895C779.324 369.331 781.536 369.548 784.147 369.548C786.685 369.548 789.405 369.222 792.306 368.569C795.279 367.916 798.253 366.901 801.226 365.523C804.272 364.145 806.81 362.513 808.841 360.628L815.26 371.615C812.576 375.967 808.624 379.629 803.402 382.602C798.253 385.503 793.285 387.462 788.498 388.477C783.711 389.492 779.142 390 774.791 390Z" fill="white"/>
<path d="M866.751 387.715H831.613V317.331L825.086 313.305V301.013L848.475 295.247H857.287L860.442 321.138C863.415 303.37 872.952 294.485 889.053 294.485C890.866 294.485 892.751 294.812 894.709 295.464L891.011 334.192C889.488 332.814 886.152 332.126 881.002 332.126C873.605 332.126 868.855 334.084 866.751 338V387.715Z" fill="white"/>
<path d="M367.808 387.715H335.063L345.18 260.218H396.201L405.774 302.971L410.126 324.619L414.259 303.079L422.745 260.218H468.218L477.573 387.715H443.741L438.192 312.761L436.887 285.13L420.243 374.987H391.849L371.833 285.13L371.18 312.761L367.808 387.715Z" stroke="white" stroke-width="2" mask="url(#path-4-outside-1_1_3)"/>
<path d="M538.557 378.033L537.47 379.23C536.744 380.1 535.62 381.116 534.097 382.276C532.647 383.437 530.942 384.597 528.984 385.757C527.099 386.918 524.778 387.897 522.022 388.695C519.266 389.565 516.438 390 513.537 390C493.955 390 484.164 380.318 484.164 360.954C484.164 357.183 484.853 353.738 486.231 350.619C487.609 347.428 489.386 344.745 491.562 342.569C493.737 340.393 496.348 338.471 499.394 336.803C502.44 335.063 505.486 333.721 508.532 332.778C511.651 331.763 514.915 330.929 518.323 330.276C521.732 329.623 524.778 329.188 527.461 328.971C530.145 328.753 532.719 328.644 535.185 328.644V326.686C535.185 322.262 533.988 319.144 531.595 317.331C529.274 315.517 525.503 314.611 520.281 314.611C515.785 314.611 511.107 315.155 506.248 316.243C501.389 317.258 497.581 318.491 494.825 319.941L487.863 305.146C492.795 301.955 499.213 299.163 507.118 296.77C515.023 294.304 523.074 293.071 531.269 293.071C538.521 293.071 544.504 293.796 549.219 295.247C553.933 296.625 557.74 299.018 560.641 302.427C563.615 305.763 565.718 310.042 566.951 315.264C568.184 320.413 568.8 326.976 568.8 334.954V379.23L571.846 387.715H542.039L538.557 378.033ZM529.963 370.854C530.906 370.854 531.776 370.672 532.574 370.31C533.444 369.874 534.097 369.476 534.532 369.113C534.968 368.678 535.185 368.46 535.185 368.46V342.351C530.761 342.351 527.244 343.584 524.633 346.05C522.022 348.444 520.716 352.179 520.716 357.255C520.716 366.321 523.799 370.854 529.963 370.854Z" stroke="white" stroke-width="2" mask="url(#path-4-outside-1_1_3)"/>
<path d="M614.587 390C607.77 390 600.88 388.876 593.918 386.628C586.956 384.307 582.495 382.059 580.537 379.883L583.366 362.368C585.831 364.761 589.929 366.828 595.659 368.569C601.46 370.31 607.371 371.18 613.391 371.18C617.742 371.18 620.716 370.636 622.311 369.548C623.979 368.46 624.813 366.937 624.813 364.979C624.813 363.093 623.363 361.425 620.462 359.975C617.561 358.452 612.847 356.711 606.32 354.753C589.421 349.676 580.972 339.16 580.972 323.205C580.972 316.678 582.858 311.093 586.629 306.452C590.401 301.738 595.223 298.329 601.098 296.226C606.972 294.123 613.536 293.071 620.788 293.071C633.19 293.071 642.328 295.356 648.202 299.925C649.508 301.158 650.161 301.774 650.161 301.774L645.374 317.331C640.587 312.616 633.988 310.259 625.575 310.259C618.685 310.259 615.24 312.29 615.24 316.351C615.24 317.512 615.494 318.491 616.002 319.289C616.509 320.014 617.343 320.667 618.504 321.247C619.737 321.755 620.933 322.19 622.094 322.552C623.254 322.842 624.886 323.278 626.989 323.858C629.092 324.365 630.905 324.837 632.428 325.272C640.914 328.1 647.078 332.089 650.922 337.238C654.766 342.388 656.688 348.806 656.688 356.494C656.688 378.831 642.654 390 614.587 390Z" stroke="white" stroke-width="2" mask="url(#path-4-outside-1_1_3)"/>
<path d="M694.693 390C684.902 390 678.048 387.063 674.132 381.188C670.288 375.314 668.366 365.378 668.366 351.381V314.393H660.86V299.272L673.697 295.247L684.793 269.9H703.939V295.247H721.78V314.393H703.613V354.862C703.613 360.664 704.447 364.508 706.115 366.393C707.783 368.279 710.358 369.222 713.839 369.222C715.362 369.222 716.74 369.04 717.973 368.678C719.206 368.315 720.221 367.808 721.019 367.155V381.95C719.931 383.038 718.517 384.126 716.776 385.213C715.036 386.229 712.135 387.28 708.073 388.368C704.085 389.456 699.624 390 694.693 390Z" stroke="white" stroke-width="2" mask="url(#path-4-outside-1_1_3)"/>
<path d="M783.494 331.473C783.494 322.262 783.022 315.735 782.08 311.891C781.137 308.047 779.396 306.126 776.858 306.126C774.682 306.126 772.905 306.524 771.527 307.322C770.149 308.047 769.134 309.244 768.481 310.912C767.829 312.508 767.393 314.176 767.176 315.916C767.031 317.584 766.958 319.724 766.958 322.335V331.473H783.494ZM774.791 390C766.668 390 759.597 388.767 753.578 386.301C747.631 383.835 742.916 380.391 739.435 375.967C736.027 371.543 733.525 366.575 731.929 361.063C730.334 355.478 729.536 349.278 729.536 342.46C729.536 326.215 733.67 313.922 741.937 305.582C750.205 297.241 761.773 293.071 776.64 293.071C790.928 293.071 801.154 296.444 807.318 303.188C813.483 309.861 816.565 320.63 816.565 335.498V347.573H766.85V349.64C766.85 353.919 767.285 357.437 768.155 360.192C769.098 362.948 770.44 364.979 772.18 366.285C773.921 367.59 775.698 368.46 777.511 368.895C779.324 369.331 781.536 369.548 784.147 369.548C786.685 369.548 789.405 369.222 792.306 368.569C795.279 367.916 798.253 366.901 801.226 365.523C804.272 364.145 806.81 362.513 808.841 360.628L815.26 371.615C812.576 375.967 808.624 379.629 803.402 382.602C798.253 385.503 793.285 387.462 788.498 388.477C783.711 389.492 779.142 390 774.791 390Z" stroke="white" stroke-width="2" mask="url(#path-4-outside-1_1_3)"/>
<path d="M866.751 387.715H831.613V317.331L825.086 313.305V301.013L848.475 295.247H857.287L860.442 321.138C863.415 303.37 872.952 294.485 889.053 294.485C890.866 294.485 892.751 294.812 894.709 295.464L891.011 334.192C889.488 332.814 886.152 332.126 881.002 332.126C873.605 332.126 868.855 334.084 866.751 338V387.715Z" stroke="white" stroke-width="2" mask="url(#path-4-outside-1_1_3)"/>
<path d="M460.041 226.857C458.036 226.857 456.393 226.036 455.122 224.395C453.845 222.758 453.211 220.841 453.211 218.658V73.8265C453.211 71.6399 453.845 69.7274 455.122 68.0878C456.393 66.4481 458.036 65.6296 460.041 65.6296H498.572C499.481 65.6296 500.622 65.8581 501.988 66.3124C503.353 66.7706 504.674 67.362 505.95 68.0891C507.223 68.8201 508.315 69.6857 509.228 70.6843C510.14 71.6882 510.595 72.7338 510.595 73.8278V218.658C510.595 220.841 509.954 222.758 508.683 224.395C507.406 226.034 505.856 226.857 504.038 226.857H460.041Z" fill="white"/>
<path d="M655.15 70.0002C657.338 70.0002 659.202 70.777 660.753 72.3226C662.298 73.8722 663.076 75.8317 663.076 78.1971V113.723L609.515 173.294H657.883C660.068 173.294 661.982 174.113 663.624 175.755C665.262 177.393 666.083 179.306 666.083 181.491V218.657C666.083 221.027 665.262 222.985 663.624 224.532C661.982 226.081 660.069 226.854 657.883 226.854H531.088C528.903 226.854 527.031 226.081 525.486 224.532C523.937 222.985 523.164 221.025 523.164 218.657V184.771L576.723 123.557H534.917C532.732 123.557 530.859 122.739 529.314 121.1C527.764 119.458 526.989 117.547 526.989 115.359V78.1945C526.989 75.8277 527.763 73.8683 529.314 72.32C530.859 70.7744 532.73 69.9977 534.917 69.9977H655.15V70.0002Z" fill="white"/>
<path d="M511.048 29.1439C511.048 45.2426 498 58.2931 481.902 58.2931C465.8 58.2931 452.752 45.2426 452.756 29.1439C452.752 13.0478 465.8 0 481.902 0C498 0 511.048 13.0478 511.048 29.1439Z" fill="white"/>
</svg>
